<svg version="1.1" viewBox="0 0 512 512" xmlns="http://www.w3.org/2000/svg">
    <path d="m370.99 273.88c-25.281 93.454-111.87 151.33-111.87 151.33s-45.605-93.641-20.324-187.09c25.281-93.454 111.87-151.33 111.87-151.33s45.605 93.641 20.324 187.09z" fill="#ff5555"/>
    <path d="m141.01 273.88c25.281 93.454 111.87 151.33 111.87 151.33s45.605-93.641 20.324-187.09c-25.281-93.454-111.87-151.33-111.87-151.33s-45.605 93.641-20.324 187.09z" fill="#ff5555"/>
    <path d="m316.38 270.08c-0.20449 85.739-60.75 155.1-60.75 155.1s-60.218-69.651-60.012-155.39c0.20449-85.739 60.75-155.1 60.75-155.1s60.218 69.651 60.012 155.39z" fill="#ff2a2a" />
    <path d="m178.16 253.8c69.372 67.531 77.845 171.34 77.845 171.34s-104-5.678-173.37-73.209c-69.372-67.531-77.845-171.34-77.845-171.34s104 5.678 173.37 73.209z" fill="#3b82f6"/>
    <path d="m333.84 253.8c-69.372 67.531-77.845 171.34-77.845 171.34s104-5.678 173.37-73.209c69.372-67.531 77.845-171.34 77.845-171.34s-104 5.678-173.37 73.209z" fill="#3b82f6"/>
</svg>
